<svg xmlns="http://www.w3.org/2000/svg" xmlns:xlink="http://www.w3.org/1999/xlink" width="310" height="64" viewBox="0 0 82.020832 16.933334"><defs><linearGradient id="b"><stop offset="0" stop-color="#737373"/><stop offset="1" stop-color="#4b4b4b"/></linearGradient><linearGradient id="a"><stop offset="0" stop-color="#b72f5f"/><stop offset="1" stop-color="#872346"/></linearGradient><linearGradient xlink:href="#a" id="c" gradientUnits="userSpaceOnUse" gradientTransform="translate(173.233 -461.003) scale(.21343)" x1="16.045" y1="132.803" x2="16.045" y2="-81.164"/><linearGradient xlink:href="#a" id="d" gradientUnits="userSpaceOnUse" x1="46.459" y1="281.163" x2="46.459" y2="296.66" gradientTransform="translate(1.09 16.9) scale(.94143)"/><linearGradient xlink:href="#b" id="e" gradientUnits="userSpaceOnUse" gradientTransform="translate(11.105 -994.648) scale(3.55816)" x1="46.459" y1="281.163" x2="46.459" y2="296.66"/></defs><path d="M173.233-461.003l1.953-3.714c-.868-1.509-2.042-2.814-3.522-3.917-2.419-1.43-4.386-1.199-5.901.694 2.931 1.323 5.421 3.635 7.47 6.937m-7.577 11.151a6.095 6.095 0 0 0 .673-3.49 23.76 23.76 0 0 0-1.473-6.285 20.998 20.998 0 0 1-1.206-4.855 6.766 6.766 0 0 1 .48-3.426c.463-1.117 1.298-2.074 2.508-2.87-1.302-.392-2.44-.499-3.415-.32-1.707.326-2.82 1.354-3.34 3.083a10.152 10.152 0 0 0-.267 5.08 33.38 33.38 0 0 0 1.238 4.674 32.993 32.993 0 0 1 1.227 4.856c.107.626.118 1.277.032 1.953a4.72 4.72 0 0 1-.779 2.006 4.498 4.498 0 0 1-1.707 1.44c.697.129 1.387.235 2.07.32a4.124 4.124 0 0 0 2.07-.351c.84-.37 1.47-.975 1.89-1.815m22.463 5.123l.63-.62-5.25-4.77 1.579-1.579 4.77 5.25.619-.629-5.24-4.77 1.483-1.483 4.77 5.24.63-.62-5.25-4.77 1.58-1.58 5.015 5.016 1.067-1.045-4.503-4.504h.01l-5.87-5.859-3.563-1.462-5.102 3.831-.02.022-.022-.022.01-.02 3.394-4.526-1.131-.458-4.973 4.973 1.26 3.073 4.652-3.49.01-.01.033.02-.01.012-3.95 5.26.64 1.57 4.814 4.802h-.01l5.559 5.549 1.057-1.046-5.027-5.026 1.569-1.569 4.77 5.24m4.14-28.173c4.405 4.403 6.607 9.722 6.607 15.954 0 6.218-2.202 11.536-6.606 15.954-4.418 4.404-9.736 6.606-15.954 6.606-6.233 0-11.55-2.202-15.955-6.606-2.703-2.71-4.574-5.756-5.613-9.135l.448.245c2.241 1.181 4.226.577 5.955-1.814-1.565-.32-2.82-.658-3.767-1.014a5.467 5.467 0 0 1-1.43-.821c-.96-.762-1.565-1.73-1.814-2.903a11.315 11.315 0 0 1 .032-5.005c.81-4.34 2.874-8.16 6.19-11.461 4.403-4.411 9.721-6.617 15.954-6.617 6.225 0 11.543 2.206 15.954 6.617" fill="url(#c)" transform="matrix(.35176 0 0 -.35176 -53.595 -152.27)"/><path style="line-height:6.61458302px;-inkscape-font-specification:Norwegian" d="M47.104 281.834c-.456 0-.816.388-.816.849 0 .46.355.816.816.816a.82.82 0 0 0 .833-.816.85.85 0 0 0-.833-.849zm-21.502 1.404c-.205 0-.382.046-.5.13-.118.085-.187.201-.187.4v.981l-.151-.031a9.89 9.89 0 0 0-1.872-.173c-1.288 0-2.148.066-2.657.374a1.264 1.264 0 0 0-.548.676c-.119.313-.177.73-.177 1.28v6.123c0 .982.25 1.508.787 1.824.539.315 1.407.41 2.628.41 1.308 0 2.178-.13 2.701-.484.524-.354.745-.932.745-1.942 0-.821-.147-1.37-.543-1.722-.395-.352-1.075-.528-2.186-.528h-2.787v-1.234l.148.03c.478.092 1.094.11 1.89.11 1.292 0 2.148-.112 2.658-.453.51-.34.724-.915.724-1.958v-3.284c0-.198-.07-.314-.186-.399a.843.843 0 0 0-.487-.13zm6.112 1.29c-1.226 0-2.038.137-2.526.495-.488.357-.697.945-.697 1.947v2.84c0 .935.23 1.54.743 1.932.512.39 1.337.571 2.544.571 1.392 0 2.17-.058 2.567-.196.199-.069.298-.15.355-.246.058-.097.078-.227.078-.405 0-.208-.04-.378-.117-.485-.076-.108-.186-.171-.396-.171-.794 0-1.057.19-2.408.19-.593 0-1.06-.078-1.395-.255-.335-.177-.53-.473-.53-.84v-.89h4.301a.717.717 0 0 0 .539-.213c.13-.138.213-.342.213-.62v-1.212c0-1.037-.179-1.623-.654-1.97-.476-.348-1.3-.472-2.617-.472zm8.83 0c-1.303 0-2.117.086-2.59.49-.472.403-.665 1.168-.665 2.623v4.002c0 .215.074.338.197.426.123.088.31.134.524.134.223 0 .412-.046.537-.134.125-.088.198-.211.198-.426v-3.81c0-.424.006-.754.04-1.019.036-.265.102-.47.236-.623.135-.152.328-.236.574-.28.246-.044.552-.053.949-.053.4 0 .712.01.963.053.25.044.447.126.587.278.139.151.211.358.25.623.038.265.046.597.046 1.02v3.81c0 .217.07.34.19.427.122.088.308.134.53.134.215 0 .401-.046.525-.134.123-.088.196-.211.196-.426v-4.002c0-1.455-.201-2.219-.682-2.623-.48-.404-1.303-.49-2.605-.49zm12.996 0c-1.227 0-2.038.137-2.527.495-.488.357-.696.945-.696 1.947v2.84c0 .935.23 1.54.742 1.932.513.39 1.338.571 2.545.571 1.392 0 2.17-.058 2.567-.196.2-.069.298-.15.355-.246.058-.097.079-.227.079-.405 0-.208-.04-.378-.117-.485-.077-.108-.188-.171-.398-.171-.793 0-1.056.19-2.406.19-.594 0-1.062-.078-1.396-.255-.335-.177-.53-.473-.53-.84v-.89h4.301a.716.716 0 0 0 .539-.213c.13-.138.213-.342.213-.62v-1.212c0-1.037-.18-1.623-.655-1.97-.475-.348-1.3-.472-2.616-.472zm-6.436.13c-.212 0-.398.047-.522.14-.124.09-.198.22-.198.435v6.41c0 .215.073.338.196.426.123.088.31.134.524.134.223 0 .414-.046.54-.134.124-.088.198-.211.198-.426v-6.41c0-.215-.075-.342-.201-.434-.126-.092-.316-.142-.537-.142zm-24.212 1.135c.662 0 1.4.065 1.918.146l.105.016v.92c0 .246-.01.453-.058.632a.757.757 0 0 1-.292.441c-.305.216-.798.263-1.673.263h-.123v-.013c-.761 0-1.26-.002-1.55-.16a.637.637 0 0 1-.307-.395c-.049-.17-.057-.37-.057-.625v-.062c0-.227.03-.418.108-.58a.811.811 0 0 1 .373-.373c.337-.171.826-.21 1.556-.21zm8.839.049c.677 0 1.116.054 1.412.237a.775.775 0 0 1 .316.373c.063.154.085.33.085.535v.811h-3.611v-.811c0-.437.135-.755.439-.928.304-.174.739-.217 1.359-.217zm21.825 0c.677 0 1.117.054 1.413.237a.779.779 0 0 1 .318.373c.062.154.084.33.084.535v.811h-3.613v-.811c0-.437.136-.755.44-.928.304-.174.738-.217 1.358-.217zm-32.701 5.867h2.388c.613 0 1.05.045 1.355.226.306.18.443.505.443.95 0 .429-.179.743-.533.907-.354.164-.861.206-1.568.206-.652 0-1.151-.045-1.51-.186a.952.952 0 0 1-.425-.3.789.789 0 0 1-.15-.483v-1.195z" font-weight="400" font-size="16.933" font-family="Norwegian" letter-spacing="0" word-spacing="0" fill="url(#d)" transform="translate(0 -280.067)"/><path style="line-height:6.61458302px;-inkscape-font-specification:Norwegian;text-align:end" d="M235.615 16.863v.002c-5.286 0-8.24.293-9.752.848-.756.278-1.13.595-1.35.96-.219.367-.296.836-.296 1.462 0 .75.16 1.367.459 1.771.298.404.722.65 1.482.65 1.438 0 2.327-.18 3.58-.363 1.254-.183 2.842-.369 5.574-.369 2.196 0 3.653.16 4.659.725.502.282.881.687 1.107 1.18.226.492.31 1.063.31 1.707v3.24h-9.39c-4.286 0-6.664.72-7.973 2.111-1.308 1.39-1.675 3.594-1.675 6.813 0 1.96.17 3.482.56 4.636.39 1.155.983 1.948 1.87 2.54 1.772 1.182 4.894 1.513 9.876 1.513 4.65 0 7.754-.328 9.604-1.492.925-.582 1.56-1.355 1.992-2.473.431-1.117.643-2.586.643-4.48V26.336c0-3.53-.614-5.845-2.258-7.309-1.645-1.463-4.46-2.164-9.022-2.164zm31.934 0v.002c-4.636 0-7.7.516-9.545 1.867-1.846 1.352-2.635 3.579-2.635 7.368v10.6c0 3.541.805 5.872 2.672 7.374 1.867 1.503 4.916 2.215 9.508 2.215 4.182 0 7.214-.487 8.017-.701.718-.193 1.163-.478 1.448-.857.284-.38.435-.897.435-1.647 0-.782-.168-1.42-.467-1.83-.298-.41-.714-.65-1.474-.65-1.345 0-2.14.173-3.182.355-1.041.183-2.309.37-4.474.37-2.276 0-3.98-.33-5.168-1.042-1.189-.712-1.807-1.861-1.807-3.226V26.217c0-1.657.55-2.861 1.734-3.514 1.184-.653 2.867-.812 5.24-.812 2.196 0 3.492.186 4.542.369 1.05.182 1.832.355 3.115.355.755 0 1.173-.252 1.474-.672.302-.42.467-1.059.467-1.808 0-.612-.049-1.1-.215-1.463-.165-.364-.442-.654-1.056-.93-1.23-.55-3.798-.879-8.63-.879zm29.61 0c-4.645 0-7.95.401-10.01 1.617-2.06 1.217-3.02 3.211-3.02 6.829v.724c0 3.097 1.06 4.883 2.664 6.037 1.605 1.155 3.819 1.652 6.076 1.905 2.257.252 4.54.258 6.319.539.889.14 1.66.343 2.26.732.598.39 1.003 1.034 1.003 1.815v.605c0 .795-.193 1.474-.584 2.008-.39.533-.964.897-1.652 1.144-1.377.495-3.257.569-5.649.569-3.029 0-6.172-.723-8.613-.723-.76 0-1.162.235-1.447.643-.285.407-.436 1.05-.436 1.838 0 .622.061 1.09.244 1.439.184.349.493.637 1.18.9 1.375.527 4.179.805 9.375.805 4.608 0 7.902-.486 9.973-1.824 2.07-1.338 3.049-3.515 3.049-7.285v-.784c0-2.845-1.047-4.44-2.657-5.484-1.61-1.043-3.841-1.48-6.113-1.726-2.272-.246-4.568-.301-6.363-.68-.898-.19-1.678-.456-2.274-.924-.595-.468-.966-1.175-.966-2.03v-.538c0-.68.133-1.266.457-1.735.323-.469.816-.79 1.418-.996 1.203-.413 2.889-.459 5.277-.459 3.206 0 5.885.733 8.201.733.76 0 1.163-.242 1.447-.643.285-.401.428-1.024.428-1.78 0-.579-.026-1.053-.162-1.41-.136-.356-.357-.64-.922-.921-1.13-.562-3.615-.94-8.504-.94zm-63.647 16.471h7.877v4.871c0 .617-.117 1.167-.407 1.625-.29.458-.741.8-1.306 1.033-1.13.467-2.748.582-5.086.582-2.55 0-4.204-.122-5.338-.715a2.69 2.69 0 0 1-1.24-1.285c-.25-.553-.34-1.202-.34-1.963 0-.838.062-1.521.252-2.097.19-.576.53-1.045 1.017-1.358.976-.625 2.386-.693 4.57-.693z" transform="scale(.26458)" font-weight="400" font-size="16.933" font-family="Norwegian" letter-spacing="0" word-spacing="0" text-anchor="end" fill="url(#e)"/></svg>