<svg xmlns="http://www.w3.org/2000/svg" width="310" height="64" viewBox="0 0 82.021 16.933"><path d="M7.341 9.892l.687 1.307c-.305.53-.718.99-1.238 1.378-.851.503-1.543.421-2.076-.244 1.03-.466 1.907-1.28 2.627-2.44M4.676 5.97a2.144 2.144 0 0 1 .237 1.228 8.358 8.358 0 0 1-.518 2.21 7.386 7.386 0 0 0-.424 1.708 2.38 2.38 0 0 0 .168 1.205c.163.393.457.73.883 1.01-.458.138-.859.175-1.202.112-.6-.114-.992-.476-1.175-1.084a3.571 3.571 0 0 1-.093-1.787 11.742 11.742 0 0 1 .435-1.644 11.606 11.606 0 0 0 .432-1.708c.037-.22.041-.45.01-.687a1.66 1.66 0 0 0-.273-.706 1.582 1.582 0 0 0-.6-.506c.245-.046.487-.083.728-.113a1.45 1.45 0 0 1 .728.123c.295.13.517.343.665.639m7.901-1.802l.222.218-1.847 1.678.555.555 1.678-1.846.218.22-1.843 1.679.521.521L13.76 5.35l.222.218-1.847 1.678.556.556 1.764-1.765.375.368-1.584 1.584h.004l-2.065 2.061-1.253.515-1.795-1.348-.007-.008-.008.008.004.007 1.194 1.592-.398.161-1.75-1.75.444-1.08 1.636 1.228.004.003.011-.007-.003-.004-1.39-1.85.225-.553 1.694-1.689h-.004l1.956-1.952.372.368-1.769 1.768.552.552 1.678-1.843m1.456 9.91c1.55-1.549 2.324-3.42 2.324-5.612 0-2.187-.774-4.058-2.323-5.612C12.48 1.304 10.61.53 8.423.53 6.23.53 4.36 1.305 2.81 2.854c-.95.953-1.609 2.025-1.974 3.213l.158-.086c.788-.415 1.486-.203 2.094.638-.55.113-.992.232-1.325.357a1.923 1.923 0 0 0-.503.289c-.337.268-.55.608-.638 1.02a3.98 3.98 0 0 0 .011 1.761c.285 1.527 1.011 2.87 2.178 4.032 1.549 1.552 3.42 2.328 5.612 2.328 2.19 0 4.06-.776 5.612-2.328" fill="white"/><path d="M47.104 1.767c-.456 0-.816.388-.816.849 0 .46.355.816.816.816a.82.82 0 0 0 .833-.816.85.85 0 0 0-.833-.849zM25.602 3.171c-.205 0-.382.046-.5.13-.118.085-.187.201-.187.4v.981l-.151-.031a9.89 9.89 0 0 0-1.872-.173c-1.288 0-2.148.066-2.657.374a1.264 1.264 0 0 0-.548.676c-.119.313-.177.73-.177 1.28v6.123c0 .982.25 1.508.787 1.824.539.315 1.407.41 2.628.41 1.308 0 2.178-.13 2.701-.484.524-.354.745-.932.745-1.942 0-.821-.147-1.37-.543-1.722-.395-.352-1.075-.528-2.186-.528h-2.787V9.255l.148.03c.478.092 1.094.11 1.89.11 1.292 0 2.148-.112 2.658-.453.51-.34.724-.915.724-1.958V3.7c0-.198-.07-.314-.186-.399a.843.843 0 0 0-.487-.13zm6.112 1.29c-1.226 0-2.038.137-2.526.495-.488.357-.697.945-.697 1.947v2.84c0 .935.23 1.54.743 1.932.512.39 1.337.571 2.544.571 1.392 0 2.17-.058 2.567-.196.199-.069.298-.15.355-.246.058-.097.078-.227.078-.405 0-.208-.04-.378-.117-.485-.076-.108-.186-.171-.396-.171-.794 0-1.057.19-2.408.19-.593 0-1.06-.078-1.395-.255-.335-.177-.53-.473-.53-.84v-.89h4.301a.717.717 0 0 0 .539-.213c.13-.138.213-.342.213-.62V6.903c0-1.037-.179-1.623-.654-1.97-.476-.348-1.3-.472-2.617-.472zm8.83 0c-1.303 0-2.117.086-2.59.49-.472.403-.665 1.168-.665 2.623v4.002c0 .215.074.338.197.426.123.088.31.134.524.134.223 0 .412-.046.537-.134.125-.088.198-.211.198-.426v-3.81c0-.424.006-.754.04-1.019.036-.265.102-.47.236-.623.135-.152.328-.236.574-.28.246-.044.552-.053.949-.053.4 0 .712.01.963.053.25.044.447.126.587.278.139.151.211.358.25.623.038.265.046.597.046 1.02v3.81c0 .217.07.34.19.427.122.088.308.134.53.134.215 0 .401-.046.525-.134.123-.088.196-.211.196-.426V7.574c0-1.455-.201-2.219-.682-2.623-.48-.404-1.303-.49-2.605-.49zm12.996 0c-1.227 0-2.038.137-2.527.495-.488.357-.696.945-.696 1.947v2.84c0 .935.23 1.54.742 1.932.513.39 1.338.571 2.545.571 1.392 0 2.17-.058 2.567-.196.2-.069.298-.15.355-.246.058-.097.079-.227.079-.405 0-.208-.04-.378-.117-.485-.077-.108-.188-.171-.398-.171-.793 0-1.056.19-2.406.19-.594 0-1.062-.078-1.396-.255-.335-.177-.53-.473-.53-.84v-.89h4.301a.716.716 0 0 0 .539-.213c.13-.138.213-.342.213-.62V6.903c0-1.037-.18-1.623-.655-1.97-.475-.348-1.3-.472-2.616-.472zm-6.436.13c-.212 0-.398.047-.522.14-.124.09-.198.22-.198.435v6.41c0 .215.073.338.196.426.123.088.31.134.524.134.223 0 .414-.046.54-.134.124-.088.198-.211.198-.426v-6.41c0-.215-.075-.342-.201-.434-.126-.092-.316-.142-.537-.142zM22.892 5.726c.662 0 1.4.065 1.918.146l.105.016v.92c0 .246-.01.453-.058.632a.757.757 0 0 1-.292.441c-.305.216-.798.263-1.673.263h-.123v-.013c-.761 0-1.26-.002-1.55-.16a.637.637 0 0 1-.307-.395c-.049-.17-.057-.37-.057-.625v-.062c0-.227.03-.418.108-.58a.811.811 0 0 1 .373-.373c.337-.171.826-.21 1.556-.21zm8.839.049c.677 0 1.116.054 1.412.237a.775.775 0 0 1 .316.373c.063.154.085.33.085.535v.811h-3.611V6.92c0-.437.135-.755.439-.928.304-.174.739-.217 1.359-.217zm21.825 0c.677 0 1.117.054 1.413.237a.779.779 0 0 1 .318.373c.062.154.084.33.084.535v.811h-3.613V6.92c0-.437.136-.755.44-.928.304-.174.738-.217 1.358-.217zm-32.701 5.867h2.388c.613 0 1.05.045 1.355.226.306.18.443.505.443.95 0 .429-.179.743-.533.907-.354.164-.861.206-1.568.206-.652 0-1.151-.045-1.51-.186a.952.952 0 0 1-.425-.3.789.789 0 0 1-.15-.483v-1.195z" fill="white"/><path d="M62.339 4.462c-1.399 0-2.18.078-2.58.225-.2.073-.3.157-.357.254-.058.097-.079.22-.079.386 0 .199.043.362.122.469.079.107.19.172.392.172.38 0 .616-.048.947-.096a9.457 9.457 0 0 1 1.475-.098c.58 0 .966.043 1.233.192a.685.685 0 0 1 .292.312c.06.13.082.281.082.452v.857h-2.484c-1.134 0-1.763.19-2.11.559-.346.367-.443.95-.443 1.802 0 .519.045.921.149 1.227.103.305.26.515.494.672.47.313 1.295.4 2.613.4 1.23 0 2.052-.087 2.541-.395a1.27 1.27 0 0 0 .527-.654c.114-.295.17-.684.17-1.185V6.968c0-.934-.162-1.546-.597-1.934-.435-.387-1.18-.572-2.387-.572zm8.45 0c-1.227 0-2.038.137-2.526.494-.489.358-.697.947-.697 1.95V9.71c0 .937.213 1.554.706 1.951.494.398 1.301.586 2.516.586 1.107 0 1.909-.129 2.121-.185.19-.051.308-.127.383-.227.076-.1.115-.237.115-.436 0-.207-.044-.376-.123-.484-.079-.108-.189-.172-.39-.172-.356 0-.566.046-.842.094-.275.048-.61.098-1.184.098-.602 0-1.053-.087-1.367-.276a.956.956 0 0 1-.478-.853v-2.87c0-.438.145-.756.459-.93.313-.172.758-.214 1.386-.214.581 0 .924.05 1.202.098.278.048.484.093.824.093.2 0 .31-.066.39-.177.08-.111.123-.28.123-.479 0-.162-.013-.29-.056-.387-.044-.096-.117-.173-.28-.246-.325-.145-1.005-.232-2.283-.232zm7.833 0c-1.229 0-2.103.106-2.648.427-.545.322-.8.85-.8 1.807v.192c0 .82.281 1.292.706 1.597.424.306 1.01.437 1.607.504s1.201.068 1.672.143c.235.037.44.09.598.193a.567.567 0 0 1 .265.48v.16a.88.88 0 0 1-.154.532.899.899 0 0 1-.437.303c-.364.13-.862.15-1.495.15-.801 0-1.633-.191-2.279-.191-.2 0-.307.062-.382.17-.076.108-.116.278-.116.486 0 .165.016.289.065.381.048.092.13.169.312.238.364.14 1.106.213 2.48.213 1.22 0 2.091-.128 2.64-.482.547-.354.806-.93.806-1.928V9.63c0-.753-.277-1.175-.703-1.451-.426-.276-1.016-.392-1.618-.457-.6-.065-1.208-.08-1.683-.18-.238-.05-.444-.12-.602-.244a.668.668 0 0 1-.255-.537v-.143a.79.79 0 0 1 .12-.459.723.723 0 0 1 .376-.263c.318-.11.764-.122 1.396-.122.848 0 1.557.194 2.17.194.2 0 .307-.064.383-.17.075-.106.113-.27.113-.47 0-.154-.007-.28-.043-.374-.036-.094-.094-.17-.244-.244-.299-.148-.956-.248-2.25-.248zM61.782 8.82h2.085v1.288a.788.788 0 0 1-.108.43.721.721 0 0 1-.346.274c-.298.123-.727.154-1.345.154-.675 0-1.112-.033-1.413-.19a.712.712 0 0 1-.328-.34 1.251 1.251 0 0 1-.09-.519c0-.222.017-.402.067-.555a.662.662 0 0 1 .27-.36c.257-.164.63-.182 1.208-.182z" fill="white"/></svg>